<svg width="32" height="32" viewBox="0 0 32 32" fill="none" xmlns="http://www.w3.org/2000/svg">
<path d="M14.7075 21.2926C14.8005 21.3854 14.8742 21.4957 14.9246 21.6171C14.9749 21.7385 15.0008 21.8686 15.0008 22.0001C15.0008 22.1315 14.9749 22.2616 14.9246 22.383C14.8742 22.5044 14.8005 22.6147 14.7075 22.7076L10.7075 26.7076C10.6146 26.8005 10.5043 26.8743 10.3829 26.9246C10.2615 26.9749 10.1314 27.0008 10 27.0008C9.86859 27.0008 9.73846 26.9749 9.61707 26.9246C9.49567 26.8743 9.38538 26.8005 9.29251 26.7076L5.29251 22.7076C5.1996 22.6146 5.1259 22.5043 5.07561 22.3829C5.02533 22.2616 4.99945 22.1314 4.99945 22.0001C4.99945 21.8687 5.02533 21.7386 5.07561 21.6172C5.1259 21.4958 5.1996 21.3855 5.29251 21.2926C5.48015 21.1049 5.73464 20.9995 6.00001 20.9995C6.1314 20.9995 6.26151 21.0254 6.3829 21.0757C6.5043 21.1259 6.6146 21.1996 6.70751 21.2926L9.00001 23.5863V6.00005C9.00001 5.73484 9.10536 5.48048 9.2929 5.29295C9.48044 5.10541 9.73479 5.00005 10 5.00005C10.2652 5.00005 10.5196 5.10541 10.7071 5.29295C10.8946 5.48048 11 5.73484 11 6.00005V23.5863L13.2925 21.2926C13.3854 21.1996 13.4957 21.1258 13.6171 21.0755C13.7385 21.0252 13.8686 20.9993 14 20.9993C14.1314 20.9993 14.2615 21.0252 14.3829 21.0755C14.5043 21.1258 14.6146 21.1996 14.7075 21.2926ZM26.7075 9.29255L22.7075 5.29255C22.6146 5.19958 22.5043 5.12582 22.3829 5.07549C22.2615 5.02517 22.1314 4.99927 22 4.99927C21.8686 4.99927 21.7385 5.02517 21.6171 5.07549C21.4957 5.12582 21.3854 5.19958 21.2925 5.29255L17.2925 9.29255C17.1049 9.48019 16.9994 9.73469 16.9994 10.0001C16.9994 10.2654 17.1049 10.5199 17.2925 10.7076C17.4801 10.8952 17.7346 11.0006 18 11.0006C18.2654 11.0006 18.5199 10.8952 18.7075 10.7076L21 8.4138V26.0001C21 26.2653 21.1054 26.5196 21.2929 26.7072C21.4804 26.8947 21.7348 27.0001 22 27.0001C22.2652 27.0001 22.5196 26.8947 22.7071 26.7072C22.8947 26.5196 23 26.2653 23 26.0001V8.4138L25.2925 10.7076C25.4801 10.8952 25.7346 11.0006 26 11.0006C26.2654 11.0006 26.5199 10.8952 26.7075 10.7076C26.8951 10.5199 27.0006 10.2654 27.0006 10.0001C27.0006 9.73469 26.8951 9.48019 26.7075 9.29255Z" fill="#4A5568"/>
</svg>
