<svg width="40" height="40" viewBox="0 0 40 40" fill="none" xmlns="http://www.w3.org/2000/svg">
<path d="M22.45 15.7399C23.25 15.0399 24.06 14.3499 24.81 13.6899C26.36 14.3999 27.75 15.0399 29.32 15.7599C29.13 14.9599 28.97 14.2799 28.78 13.4799C31.08 13.2999 33.45 12.2999 34.75 15.1899C36.05 14.5099 38.27 15.0999 38.81 16.5499C39.04 17.1799 38.22 18.1899 37.87 19.0299C37.71 18.9699 37.56 18.8999 37.4 18.8399C37.4 20.4499 37.4 22.0599 37.4 23.5099C36.55 24.1499 35.87 24.7799 35.07 25.1899C34.6 25.4299 33.92 25.4299 33.39 25.3099C32.01 24.9899 30.6 24.6699 29.31 24.1199C27.43 23.3099 27.47 25.4799 26.39 25.8999C26.31 25.9299 26.67 27.0699 26.81 27.6999C26.9 28.1099 26.94 28.5199 27 28.9399C26.64 28.8899 26.27 28.7599 25.91 28.7899C25.06 28.8599 24.22 28.9699 23.38 29.1199C21.94 29.3699 20.51 29.6599 19.58 29.8299C19.07 28.7999 18.88 28.0499 18.42 27.5599C17.83 26.9199 16.34 26.1899 16.42 26.0099C16.88 24.9499 17.67 24.0399 18.37 23.0999C18.47 22.9599 18.69 22.8999 19.01 22.7099C18.65 22.4399 18.35 22.2299 17.7 21.7599C18.83 20.9399 20.04 20.3599 20.8 19.4199C21.42 18.6499 21.51 17.4499 21.84 16.4499C22.04 16.1999 22.25 15.9699 22.45 15.7399Z" fill="#4A5568"/>
<path d="M22.45 15.74C22.24 15.97 22.04 16.21 21.83 16.44C21.47 16.7 20.77 17 20.8 17.23C21.03 19.43 19.45 19.43 17.79 19.81C18.48 13.67 23.53 9.79 24.81 4C27.69 4.93 30.34 5.78 33.1 6.67C32.82 7.41 32.65 7.87 32.41 8.5C31.88 8.16 31.45 7.89 30.76 7.45C31.07 9.01 31.32 10.27 31.58 11.59C29.87 11.77 27.88 11.96 25.89 12.18C24.68 12.31 22.51 14.57 22.45 15.74Z" fill="#4A5568"/>
<path d="M2 34.8301C2.2 33.7501 2.32 32.8501 2.54 31.9801C2.62 31.6501 2.89 31.1801 3.16 31.1201C5.62 30.5201 5.21 28.4701 5.29 26.7901C5.4 24.5301 5.61 24.4101 7.88 24.5801C9.52 24.7001 11.19 24.2401 12.86 24.2001C13.33 24.1901 13.92 24.6801 14.26 25.1001C16.21 27.5501 14.61 29.2001 12.67 30.2601C9.37 32.0501 5.88 33.4901 2.46 35.0501C2.35 35.0901 2.13 34.8901 2 34.8301Z" fill="#4A5568"/>
<path d="M31.68 28.07C33.08 27.64 34.49 27.22 35.89 26.79C35.98 27.11 36.06 27.43 36.15 27.76C34.72 28.07 33.28 28.38 31.85 28.68C31.79 28.48 31.74 28.27 31.68 28.07Z" fill="#4A5568"/>
</svg>
